<mxfile host="app.diagrams.net" agent="Mozilla/5.0 (Windows NT 10.0; Win64; x64) AppleWebKit/537.36 (KHTML, like Gecko) Chrome/130.0.0.0 Safari/537.36" version="24.8.3">
  <diagram name="페이지-1" id="j3KrUmPSJjObLIyu91If">
    <mxGraphModel dx="1195" dy="650" grid="1" gridSize="10" guides="1" tooltips="1" connect="1" arrows="1" fold="1" page="1" pageScale="1" pageWidth="827" pageHeight="1169" math="0" shadow="0">
      <root>
        <mxCell id="0" />
        <mxCell id="1" parent="0" />
        <mxCell id="rMZSnL37k4c6WxkFMUnm-8" value="call" style="edgeStyle=orthogonalEdgeStyle;rounded=0;orthogonalLoop=1;jettySize=auto;html=1;entryX=0.5;entryY=0;entryDx=0;entryDy=0;dashed=1;dashPattern=1 4;" edge="1" parent="1">
          <mxGeometry y="-20" relative="1" as="geometry">
            <mxPoint x="80" y="350" as="sourcePoint" />
            <mxPoint x="80" y="410" as="targetPoint" />
            <mxPoint as="offset" />
          </mxGeometry>
        </mxCell>
        <mxCell id="rMZSnL37k4c6WxkFMUnm-10" value="call" style="edgeStyle=orthogonalEdgeStyle;rounded=0;orthogonalLoop=1;jettySize=auto;html=1;" edge="1" parent="1" source="rMZSnL37k4c6WxkFMUnm-1" target="rMZSnL37k4c6WxkFMUnm-2">
          <mxGeometry y="10" relative="1" as="geometry">
            <Array as="points">
              <mxPoint x="200" y="280" />
              <mxPoint x="200" y="280" />
            </Array>
            <mxPoint as="offset" />
          </mxGeometry>
        </mxCell>
        <mxCell id="rMZSnL37k4c6WxkFMUnm-1" value="&amp;lt;&amp;lt;service&amp;gt;&amp;gt;&lt;br&gt;&lt;br&gt;Client" style="rounded=0;whiteSpace=wrap;html=1;" vertex="1" parent="1">
          <mxGeometry x="40" y="230" width="90" height="120" as="geometry" />
        </mxCell>
        <mxCell id="rMZSnL37k4c6WxkFMUnm-2" value="&amp;lt;&amp;lt;service&amp;gt;&amp;gt;&lt;br&gt;&lt;br&gt;Server" style="rounded=0;whiteSpace=wrap;html=1;" vertex="1" parent="1">
          <mxGeometry x="213" y="230" width="90" height="120" as="geometry" />
        </mxCell>
        <mxCell id="rMZSnL37k4c6WxkFMUnm-7" value="&amp;lt;&amp;lt;embedded system&amp;gt;&amp;gt;&lt;br&gt;&lt;br&gt;webOS" style="rounded=0;whiteSpace=wrap;html=1;" vertex="1" parent="1">
          <mxGeometry x="20" y="410" width="130" height="120" as="geometry" />
        </mxCell>
        <mxCell id="rMZSnL37k4c6WxkFMUnm-9" value="return" style="edgeStyle=orthogonalEdgeStyle;rounded=0;orthogonalLoop=1;jettySize=auto;html=1;entryX=0.5;entryY=0;entryDx=0;entryDy=0;endArrow=none;endFill=0;startArrow=classic;startFill=1;dashed=1;dashPattern=1 4;" edge="1" parent="1">
          <mxGeometry y="20" relative="1" as="geometry">
            <mxPoint x="90" y="350" as="sourcePoint" />
            <mxPoint x="90" y="410" as="targetPoint" />
            <mxPoint as="offset" />
          </mxGeometry>
        </mxCell>
        <mxCell id="rMZSnL37k4c6WxkFMUnm-11" value="return" style="edgeStyle=orthogonalEdgeStyle;rounded=0;orthogonalLoop=1;jettySize=auto;html=1;endArrow=none;endFill=0;startArrow=classic;startFill=1;exitX=1;exitY=0.5;exitDx=0;exitDy=0;entryX=0;entryY=0.5;entryDx=0;entryDy=0;" edge="1" parent="1" target="rMZSnL37k4c6WxkFMUnm-2">
          <mxGeometry x="-0.02" y="-10" relative="1" as="geometry">
            <mxPoint x="131" y="290" as="sourcePoint" />
            <mxPoint x="210" y="290" as="targetPoint" />
            <Array as="points" />
            <mxPoint as="offset" />
          </mxGeometry>
        </mxCell>
        <mxCell id="rMZSnL37k4c6WxkFMUnm-12" value="call" style="edgeStyle=orthogonalEdgeStyle;rounded=0;orthogonalLoop=1;jettySize=auto;html=1;dashed=1;entryX=-0.018;entryY=0.392;entryDx=0;entryDy=0;entryPerimeter=0;" edge="1" parent="1" target="rMZSnL37k4c6WxkFMUnm-18">
          <mxGeometry x="0.0224" y="10" relative="1" as="geometry">
            <mxPoint x="303" y="280" as="sourcePoint" />
            <mxPoint x="430.56999999999994" y="280.6399999999999" as="targetPoint" />
            <Array as="points">
              <mxPoint x="333" y="280" />
            </Array>
            <mxPoint as="offset" />
          </mxGeometry>
        </mxCell>
        <mxCell id="rMZSnL37k4c6WxkFMUnm-13" value="return" style="edgeStyle=orthogonalEdgeStyle;rounded=0;orthogonalLoop=1;jettySize=auto;html=1;endArrow=none;endFill=0;startArrow=classic;startFill=1;dashed=1;entryX=0;entryY=0.5;entryDx=0;entryDy=0;exitX=1;exitY=0.5;exitDx=0;exitDy=0;" edge="1" parent="1" source="rMZSnL37k4c6WxkFMUnm-2">
          <mxGeometry x="-0.2762" y="-10" relative="1" as="geometry">
            <mxPoint x="313" y="290" as="sourcePoint" />
            <mxPoint x="412.9999999999998" y="290" as="targetPoint" />
            <Array as="points" />
            <mxPoint as="offset" />
          </mxGeometry>
        </mxCell>
        <mxCell id="rMZSnL37k4c6WxkFMUnm-14" value="call" style="edgeStyle=orthogonalEdgeStyle;rounded=0;orthogonalLoop=1;jettySize=auto;html=1;entryX=0.5;entryY=0;entryDx=0;entryDy=0;endArrow=block;endFill=0;" edge="1" parent="1">
          <mxGeometry y="-13" relative="1" as="geometry">
            <mxPoint x="253" y="350" as="sourcePoint" />
            <mxPoint x="253" y="410" as="targetPoint" />
            <mxPoint as="offset" />
          </mxGeometry>
        </mxCell>
        <mxCell id="rMZSnL37k4c6WxkFMUnm-15" value="return" style="edgeStyle=orthogonalEdgeStyle;rounded=0;orthogonalLoop=1;jettySize=auto;html=1;entryX=0.5;entryY=0;entryDx=0;entryDy=0;endArrow=none;endFill=0;startArrow=block;startFill=0;" edge="1" parent="1">
          <mxGeometry y="17" relative="1" as="geometry">
            <mxPoint x="263" y="350" as="sourcePoint" />
            <mxPoint x="263" y="410" as="targetPoint" />
            <mxPoint as="offset" />
          </mxGeometry>
        </mxCell>
        <mxCell id="rMZSnL37k4c6WxkFMUnm-16" value="&amp;lt;&amp;lt;externel system&amp;gt;&amp;gt;&lt;div&gt;외부 데이터 소스&lt;/div&gt;" style="ellipse;shape=cloud;whiteSpace=wrap;html=1;" vertex="1" parent="1">
          <mxGeometry x="180" y="400" width="156" height="90" as="geometry" />
        </mxCell>
        <mxCell id="rMZSnL37k4c6WxkFMUnm-18" value="&amp;lt;&amp;lt;storage&amp;gt;&amp;gt;&lt;div&gt;&lt;br&gt;&lt;/div&gt;&lt;div&gt;Database&lt;/div&gt;" style="shape=cylinder3;whiteSpace=wrap;html=1;boundedLbl=1;backgroundOutline=1;size=15;" vertex="1" parent="1">
          <mxGeometry x="383" y="240" width="80" height="100" as="geometry" />
        </mxCell>
        <mxCell id="rMZSnL37k4c6WxkFMUnm-21" value="database connection" style="endArrow=none;dashed=1;html=1;rounded=0;" edge="1" parent="1">
          <mxGeometry x="1" y="60" width="50" height="50" relative="1" as="geometry">
            <mxPoint x="400" y="410" as="sourcePoint" />
            <mxPoint x="440" y="410" as="targetPoint" />
            <mxPoint x="60" y="60" as="offset" />
          </mxGeometry>
        </mxCell>
        <mxCell id="rMZSnL37k4c6WxkFMUnm-22" value="socket api" style="endArrow=none;html=1;rounded=0;" edge="1" parent="1">
          <mxGeometry x="1" y="60" width="50" height="50" relative="1" as="geometry">
            <mxPoint x="400" y="429" as="sourcePoint" />
            <mxPoint x="440" y="429" as="targetPoint" />
            <mxPoint x="60" y="60" as="offset" />
          </mxGeometry>
        </mxCell>
        <mxCell id="rMZSnL37k4c6WxkFMUnm-23" value="luna api" style="endArrow=none;dashed=1;html=1;dashPattern=1 3;strokeWidth=2;rounded=0;" edge="1" parent="1">
          <mxGeometry x="1" y="60" width="50" height="50" relative="1" as="geometry">
            <mxPoint x="400" y="451" as="sourcePoint" />
            <mxPoint x="440" y="451" as="targetPoint" />
            <mxPoint x="60" y="60" as="offset" />
          </mxGeometry>
        </mxCell>
        <mxCell id="rMZSnL37k4c6WxkFMUnm-24" value="http connection" style="edgeStyle=orthogonalEdgeStyle;rounded=0;orthogonalLoop=1;jettySize=auto;html=1;endArrow=block;endFill=0;" edge="1" parent="1">
          <mxGeometry x="1" y="60" relative="1" as="geometry">
            <mxPoint x="400" y="390" as="sourcePoint" />
            <mxPoint x="440" y="390" as="targetPoint" />
            <mxPoint x="60" y="60" as="offset" />
            <Array as="points">
              <mxPoint x="400" y="390" />
              <mxPoint x="400" y="390" />
            </Array>
          </mxGeometry>
        </mxCell>
      </root>
    </mxGraphModel>
  </diagram>
</mxfile>
